<svg xmlns="http://www.w3.org/2000/svg" viewBox="0 0 1920 1080"><g transform="
          rotate(1 960 540) 
          translate(-29.639227669766115 -16.67206556424344)
          scale(1.0308741954893397)
        "><rect width="1920" height="1080" fill="rgb(240, 253, 250)"></rect><g transform="translate(0, 0)"><path fill="rgb(224, 253, 246)" fill-opacity="1" d="M0,100.465L80,102.485C160,104.506,320,108.547,480,113.631C640,118.716,800,124.845,960,120.415C1120,115.984,1280,100.995,1440,89.101C1600,77.207,1760,68.408,1840,64.008L1920,59.609L1920,1080L1840,1080C1760,1080,1600,1080,1440,1080C1280,1080,1120,1080,960,1080C800,1080,640,1080,480,1080C320,1080,160,1080,80,1080L0,1080Z"></path></g><g transform="translate(0, 135)"><path fill="rgb(208, 252, 243)" fill-opacity="1" d="M0,66.314L80,64.229C160,62.143,320,57.973,480,58.601C640,59.228,800,64.653,960,59.991C1120,55.329,1280,40.579,1440,47.016C1600,53.453,1760,81.076,1840,94.888L1920,108.699L1920,945L1840,945C1760,945,1600,945,1440,945C1280,945,1120,945,960,945C800,945,640,945,480,945C320,945,160,945,80,945L0,945Z"></path></g><g transform="translate(0, 270)"><path fill="rgb(191, 251, 239)" fill-opacity="1" d="M0,48.656L80,44.14C160,39.623,320,30.59,480,25.375C640,20.159,800,18.762,960,20.53C1120,22.298,1280,27.231,1440,27.218C1600,27.204,1760,22.245,1840,19.765L1920,17.285L1920,810L1840,810C1760,810,1600,810,1440,810C1280,810,1120,810,960,810C800,810,640,810,480,810C320,810,160,810,80,810L0,810Z"></path></g><g transform="translate(0, 405)"><path fill="rgb(174, 249, 234)" fill-opacity="1" d="M0,82.424L80,89.015C160,95.607,320,108.791,480,105.506C640,102.222,800,82.471,960,71.139C1120,59.806,1280,56.894,1440,64.2C1600,71.505,1760,89.029,1840,97.791L1920,106.552L1920,675L1840,675C1760,675,1600,675,1440,675C1280,675,1120,675,960,675C800,675,640,675,480,675C320,675,160,675,80,675L0,675Z"></path></g><g transform="translate(0, 540)"><path fill="rgb(155, 246, 229)" fill-opacity="1" d="M0,34.181L80,45.925C160,57.669,320,81.157,480,79.36C640,77.563,800,50.481,960,49.591C1120,48.701,1280,74.003,1440,86.673C1600,99.343,1760,99.382,1840,99.402L1920,99.421L1920,540L1840,540C1760,540,1600,540,1440,540C1280,540,1120,540,960,540C800,540,640,540,480,540C320,540,160,540,80,540L0,540Z"></path></g><g transform="translate(0, 675)"><path fill="rgb(135, 243, 224)" fill-opacity="1" d="M0,131.783L80,116.113C160,100.444,320,69.104,480,58.987C640,48.87,800,59.975,960,74.037C1120,88.1,1280,105.12,1440,111.734C1600,118.348,1760,114.556,1840,112.659L1920,110.763L1920,405L1840,405C1760,405,1600,405,1440,405C1280,405,1120,405,960,405C800,405,640,405,480,405C320,405,160,405,80,405L0,405Z"></path></g><g transform="translate(0, 810)"><path fill="rgb(115, 238, 218)" fill-opacity="1" d="M0,56.996L80,58.297C160,59.599,320,62.202,480,66.812C640,71.421,800,78.036,960,73.782C1120,69.528,1280,54.404,1440,49.385C1600,44.365,1760,49.449,1840,51.991L1920,54.534L1920,270L1840,270C1760,270,1600,270,1440,270C1280,270,1120,270,960,270C800,270,640,270,480,270C320,270,160,270,80,270L0,270Z"></path></g><g transform="translate(0, 945)"><path fill="rgb(94, 234, 212)" fill-opacity="1" d="M0,99.478L80,104.574C160,109.671,320,119.864,480,119.86C640,119.856,800,109.655,960,96.297C1120,82.939,1280,66.424,1440,55.719C1600,45.014,1760,40.119,1840,37.672L1920,35.225L1920,135L1840,135C1760,135,1600,135,1440,135C1280,135,1120,135,960,135C800,135,640,135,480,135C320,135,160,135,80,135L0,135Z"></path></g></g></svg>